<svg width="18" height="18" viewBox="0 0 18 18" fill="none" xmlns="http://www.w3.org/2000/svg">
<path d="M15 2.99976H3C2.175 2.99976 1.5075 3.67476 1.5075 4.49976L1.5 13.4998C1.5 14.3248 2.175 14.9998 3 14.9998H15C15.825 14.9998 16.5 14.3248 16.5 13.4998V4.49976C16.5 3.67476 15.825 2.99976 15 2.99976ZM14.7 6.18726L9.3975 9.50226C9.1575 9.65226 8.8425 9.65226 8.6025 9.50226L3.3 6.18726C3.1125 6.06726 3 5.86476 3 5.64726C3 5.14476 3.5475 4.84476 3.975 5.10726L9 8.24976L14.025 5.10726C14.4525 4.84476 15 5.14476 15 5.64726C15 5.86476 14.8875 6.06726 14.7 6.18726Z" fill="#212121"/>
</svg>
