<svg width="18" height="18" viewBox="0 0 18 18" fill="none" xmlns="http://www.w3.org/2000/svg">
<path d="M13.996 11.1223L12.1579 10.9124C11.7164 10.8618 11.2822 11.0138 10.971 11.3249L9.63945 12.6565C7.59144 11.6144 5.91251 9.94271 4.87041 7.88745L6.20922 6.54864C6.5204 6.23746 6.67237 5.80325 6.62171 5.3618L6.41185 3.53812C6.325 2.8072 5.70988 2.2572 4.97173 2.2572H3.71976C2.902 2.2572 2.22175 2.93746 2.2724 3.75523C2.65595 9.93548 7.59868 14.871 13.7717 15.2545C14.5894 15.3052 15.2697 14.6249 15.2697 13.8072V12.5552C15.2769 11.8243 14.7269 11.2092 13.996 11.1223Z" fill="#212121"/>
</svg>
